<svg xmlns="http://www.w3.org/2000/svg" id="svgvm7" width="1056" height="816"><g style="font-family:sans-serif"><g><g><g class="tactic initial-access"><g class="techniques"><g class="technique T1189" transform="translate(5,5) translate(0,1) translate(0, 0) translate(0, 44.77777777777778)"><rect width="105.775" height="44.778" fill="#fff" stroke="#6B7279" class="cell"/><polygon fill="#6B7279" points="0 0 12 0 12 0" class="sidebar" transform="translate(0, 44.77777777777778)" visibility="hidden"/><text fill="#000" font-size="7.876"><tspan x="4" y="11.296">T1189:</tspan><tspan x="4" y="25.889">Drive-by</tspan><tspan x="4" y="40.481">Compromise</tspan></text></g><g class="technique T1566" transform="translate(5,5) translate(0,1) translate(0, 0) translate(0, 89.55555555555556)"><rect width="105.775" height="44.778" fill="#fff" stroke="#6B7279" class="cell"/><polygon fill="#6B7279" points="0 0 12 0 12 12" class="sidebar" transform="translate(0, 44.77777777777778)" visibility="visible"/><text fill="#000" font-size="7.876"><tspan x="4" y="18.639">T1566:</tspan><tspan x="4" y="33.139">Phishing</tspan></text></g><g class="technique T1199" transform="translate(5,5) translate(0,1) translate(0, 0) translate(0, 179.11111111111111)"><rect width="105.775" height="44.778" fill="#9666ffff" stroke="#6B7279" class="cell"/><polygon fill="#6B7279" points="0 0 12 0 12 0" class="sidebar" transform="translate(0, 44.77777777777778)" visibility="hidden"/><text fill="#000" font-size="7.876"><tspan x="4" y="11.296">T1199:</tspan><tspan x="4" y="25.889">Trusted</tspan><tspan x="4" y="40.481">Relationship</tspan></text></g><g class="technique T1078" transform="translate(5,5) translate(0,1) translate(0, 0) translate(0, 223.88888888888889)"><rect width="105.775" height="44.778" fill="#756bb1" stroke="#6B7279" class="cell"/><polygon fill="#6B7279" points="0 0 12 0 12 12" class="sidebar" transform="translate(0, 44.77777777777778)" visibility="visible"/><text fill="#fff" font-size="7.876"><tspan x="4" y="11.296">T1078:</tspan><tspan x="4" y="25.889">Valid</tspan><tspan x="4" y="40.481">Accounts</tspan></text></g></g><g class="subtechniques"><g class="subtechnique T1566.002" transform="translate(5,5) translate(0,1) translate(0, 0) translate(15, 134.33333333333331)"><rect width="90.775" height="44.778" fill="#fff" stroke="#6B7279" class="cell"/><rect width="3" height="44.778" fill="#6B7279" stroke="#6B7279" class="cell" transform="translate(-3, 0)"/><text fill="#000" font-size="7.876"><tspan x="4" y="10.296">T1566.002:</tspan><tspan x="4" y="24.889">Spearphishing</tspan><tspan x="4" y="39.481">Link</tspan></text></g><g class="subtechnique T1078.004" transform="translate(5,5) translate(0,1) translate(0, 0) translate(15, 268.66666666666663)"><rect width="90.775" height="44.778" fill="#9666ffff" stroke="#6B7279" class="cell"/><rect width="3" height="44.778" fill="#6B7279" stroke="#6B7279" class="cell" transform="translate(-3, 0)"/><text fill="#000" font-size="7.876"><tspan x="4" y="11.296">T1078.004:</tspan><tspan x="4" y="25.889">Cloud</tspan><tspan x="4" y="40.481">Accounts</tspan></text></g><g class="subtechnique T1078.001" transform="translate(5,5) translate(0,1) translate(0, 0) translate(15, 313.44444444444446)"><rect width="90.775" height="44.778" fill="#fff" stroke="#6B7279" class="cell"/><rect width="3" height="44.778" fill="#6B7279" stroke="#6B7279" class="cell" transform="translate(-3, 0)"/><text fill="#000" font-size="7.876"><tspan x="4" y="11.296">T1078.001:</tspan><tspan x="4" y="25.889">Default</tspan><tspan x="4" y="40.481">Accounts</tspan></text></g></g><g class="tactic-label"><text fill="#000" font-size="12" font-weight="bold" transform="translate(5,5) translate(0,1) translate(0, 0)"><tspan x="52.888" y="18.639" text-anchor="middle">Initial</tspan><tspan x="52.888" y="33.139" text-anchor="middle">Access</tspan></text></g></g><g class="tactic persistence"><g class="techniques"><g class="technique T1098" transform="translate(5,5) translate(0,1) translate(117.52808988764045, 0) translate(0, 44.77777777777778)"><rect width="105.775" height="44.778" fill="#9666ffff" stroke="#6B7279" class="cell"/><polygon fill="#6B7279" points="0 0 12 0 12 12" class="sidebar" transform="translate(0, 44.77777777777778)" visibility="visible"/><text fill="#000" font-size="7.876"><tspan x="4" y="11.296">T1098:</tspan><tspan x="4" y="25.889">Account</tspan><tspan x="4" y="40.481">Manipulation</tspan></text></g><g class="technique T1136" transform="translate(5,5) translate(0,1) translate(117.52808988764045, 0) translate(0, 268.66666666666663)"><rect width="105.775" height="44.778" fill="#fff" stroke="#6B7279" class="cell"/><polygon fill="#6B7279" points="0 0 12 0 12 12" class="sidebar" transform="translate(0, 44.77777777777778)" visibility="visible"/><text fill="#000" font-size="7.876"><tspan x="4" y="11.296">T1136:</tspan><tspan x="4" y="25.889">Create</tspan><tspan x="4" y="40.481">Account</tspan></text></g><g class="technique T1137" transform="translate(5,5) translate(0,1) translate(117.52808988764045, 0) translate(0, 358.22222222222223)"><rect width="105.775" height="44.778" fill="#fff" stroke="#6B7279" class="cell"/><polygon fill="#6B7279" points="0 0 12 0 12 12" class="sidebar" transform="translate(0, 44.77777777777778)" visibility="visible"/><text fill="#000" font-size="7.876"><tspan x="4" y="11.296">T1137: Office</tspan><tspan x="4" y="25.889">Application</tspan><tspan x="4" y="40.481">Startup</tspan></text></g><g class="technique T1078" transform="translate(5,5) translate(0,1) translate(117.52808988764045, 0) translate(0, 671.6666666666667)"><rect width="105.775" height="44.778" fill="#756bb1" stroke="#6B7279" class="cell"/><polygon fill="#6B7279" points="0 0 12 0 12 12" class="sidebar" transform="translate(0, 44.77777777777778)" visibility="visible"/><text fill="#fff" font-size="7.876"><tspan x="4" y="11.296">T1078:</tspan><tspan x="4" y="25.889">Valid</tspan><tspan x="4" y="40.481">Accounts</tspan></text></g></g><g class="subtechniques"><g class="subtechnique T1098.001" transform="translate(5,5) translate(0,1) translate(117.52808988764045, 0) translate(15, 89.55555555555556)"><rect width="90.775" height="44.778" fill="#fff" stroke="#6B7279" class="cell"/><rect width="3" height="44.778" fill="#6B7279" stroke="#6B7279" class="cell" transform="translate(-3, 0)"/><text fill="#000" font-size="7.876"><tspan x="4" y="8.472">T1098.001:</tspan><tspan x="4" y="19.417">Additional</tspan><tspan x="4" y="30.361">Cloud</tspan><tspan x="4" y="41.306">Credentials</tspan></text></g><g class="subtechnique T1098.003" transform="translate(5,5) translate(0,1) translate(117.52808988764045, 0) translate(15, 134.33333333333331)"><rect width="90.775" height="44.778" fill="#9666ffff" stroke="#6B7279" class="cell"/><rect width="3" height="44.778" fill="#6B7279" stroke="#6B7279" class="cell" transform="translate(-3, 0)"/><text fill="#000" font-size="7.876"><tspan x="4" y="11.296">T1098.003:</tspan><tspan x="4" y="25.889">Additional</tspan><tspan x="4" y="40.481">Cloud Roles</tspan></text></g><g class="subtechnique T1098.002" transform="translate(5,5) translate(0,1) translate(117.52808988764045, 0) translate(15, 179.11111111111111)"><rect width="90.775" height="44.778" fill="#fff" stroke="#6B7279" class="cell"/><rect width="3" height="44.778" fill="#6B7279" stroke="#6B7279" class="cell" transform="translate(-3, 0)"/><text fill="#000" font-size="7.876"><tspan x="4" y="8.472">T1098.002:</tspan><tspan x="4" y="19.417">Additional</tspan><tspan x="4" y="30.361">Email Delegate</tspan><tspan x="4" y="41.306">Permissions</tspan></text></g><g class="subtechnique T1098.005" transform="translate(5,5) translate(0,1) translate(117.52808988764045, 0) translate(15, 223.88888888888889)"><rect width="90.775" height="44.778" fill="#fff" stroke="#6B7279" class="cell"/><rect width="3" height="44.778" fill="#6B7279" stroke="#6B7279" class="cell" transform="translate(-3, 0)"/><text fill="#000" font-size="7.876"><tspan x="4" y="11.296">T1098.005:</tspan><tspan x="4" y="25.889">Device</tspan><tspan x="4" y="40.481">Registration</tspan></text></g><g class="subtechnique T1136.003" transform="translate(5,5) translate(0,1) translate(117.52808988764045, 0) translate(15, 313.44444444444446)"><rect width="90.775" height="44.778" fill="#9666ffff" stroke="#6B7279" class="cell"/><rect width="3" height="44.778" fill="#6B7279" stroke="#6B7279" class="cell" transform="translate(-3, 0)"/><text fill="#000" font-size="7.876"><tspan x="4" y="11.296">T1136.003:</tspan><tspan x="4" y="25.889">Cloud</tspan><tspan x="4" y="40.481">Account</tspan></text></g><g class="subtechnique T1137.006" transform="translate(5,5) translate(0,1) translate(117.52808988764045, 0) translate(15, 403)"><rect width="90.775" height="44.778" fill="#fff" stroke="#6B7279" class="cell"/><rect width="3" height="44.778" fill="#6B7279" stroke="#6B7279" class="cell" transform="translate(-3, 0)"/><text fill="#000" font-size="7.876"><tspan x="4" y="18.639">T1137.006:</tspan><tspan x="4" y="33.139">Add-ins</tspan></text></g><g class="subtechnique T1137.001" transform="translate(5,5) translate(0,1) translate(117.52808988764045, 0) translate(15, 447.77777777777777)"><rect width="90.775" height="44.778" fill="#fff" stroke="#6B7279" class="cell"/><rect width="3" height="44.778" fill="#6B7279" stroke="#6B7279" class="cell" transform="translate(-3, 0)"/><text fill="#000" font-size="7.876"><tspan x="4" y="8.472">T1137.001:</tspan><tspan x="4" y="19.417">Office</tspan><tspan x="4" y="30.361">Template</tspan><tspan x="4" y="41.306">Macros</tspan></text></g><g class="subtechnique T1137.002" transform="translate(5,5) translate(0,1) translate(117.52808988764045, 0) translate(15, 492.5555555555556)"><rect width="90.775" height="44.778" fill="#fff" stroke="#6B7279" class="cell"/><rect width="3" height="44.778" fill="#6B7279" stroke="#6B7279" class="cell" transform="translate(-3, 0)"/><text fill="#000" font-size="7.876"><tspan x="4" y="11.296">T1137.002:</tspan><tspan x="4" y="25.889">Office</tspan><tspan x="4" y="40.481">Test</tspan></text></g><g class="subtechnique T1137.003" transform="translate(5,5) translate(0,1) translate(117.52808988764045, 0) translate(15, 537.3333333333333)"><rect width="90.775" height="44.778" fill="#fff" stroke="#6B7279" class="cell"/><rect width="3" height="44.778" fill="#6B7279" stroke="#6B7279" class="cell" transform="translate(-3, 0)"/><text fill="#000" font-size="7.876"><tspan x="4" y="11.296">T1137.003:</tspan><tspan x="4" y="25.889">Outlook</tspan><tspan x="4" y="40.481">Forms</tspan></text></g><g class="subtechnique T1137.004" transform="translate(5,5) translate(0,1) translate(117.52808988764045, 0) translate(15, 582.1111111111111)"><rect width="90.775" height="44.778" fill="#fff" stroke="#6B7279" class="cell"/><rect width="3" height="44.778" fill="#6B7279" stroke="#6B7279" class="cell" transform="translate(-3, 0)"/><text fill="#000" font-size="7.876"><tspan x="4" y="11.296">T1137.004:</tspan><tspan x="4" y="25.889">Outlook</tspan><tspan x="4" y="40.481">Home Page</tspan></text></g><g class="subtechnique T1137.005" transform="translate(5,5) translate(0,1) translate(117.52808988764045, 0) translate(15, 626.8888888888889)"><rect width="90.775" height="44.778" fill="#fff" stroke="#6B7279" class="cell"/><rect width="3" height="44.778" fill="#6B7279" stroke="#6B7279" class="cell" transform="translate(-3, 0)"/><text fill="#000" font-size="7.876"><tspan x="4" y="11.296">T1137.005:</tspan><tspan x="4" y="25.889">Outlook</tspan><tspan x="4" y="40.481">Rules</tspan></text></g><g class="subtechnique T1078.004" transform="translate(5,5) translate(0,1) translate(117.52808988764045, 0) translate(15, 716.4444444444445)"><rect width="90.775" height="44.778" fill="#9666ffff" stroke="#6B7279" class="cell"/><rect width="3" height="44.778" fill="#6B7279" stroke="#6B7279" class="cell" transform="translate(-3, 0)"/><text fill="#000" font-size="7.876"><tspan x="4" y="11.296">T1078.004:</tspan><tspan x="4" y="25.889">Cloud</tspan><tspan x="4" y="40.481">Accounts</tspan></text></g><g class="subtechnique T1078.001" transform="translate(5,5) translate(0,1) translate(117.52808988764045, 0) translate(15, 761.2222222222222)"><rect width="90.775" height="44.778" fill="#fff" stroke="#6B7279" class="cell"/><rect width="3" height="44.778" fill="#6B7279" stroke="#6B7279" class="cell" transform="translate(-3, 0)"/><text fill="#000" font-size="7.876"><tspan x="4" y="11.296">T1078.001:</tspan><tspan x="4" y="25.889">Default</tspan><tspan x="4" y="40.481">Accounts</tspan></text></g></g><g class="tactic-label"><text fill="#000" font-size="12" font-weight="bold" transform="translate(5,5) translate(0,1) translate(117.52808988764045, 0)"><tspan x="52.888" y="25.889" text-anchor="middle">Persistence</tspan></text></g></g><g class="tactic privilege-escalation"><g class="techniques"><g class="technique T1484" transform="translate(5,5) translate(0,1) translate(235.0561797752809, 0) translate(0, 44.77777777777778)"><rect width="105.775" height="44.778" fill="#fff" stroke="#6B7279" class="cell"/><polygon fill="#6B7279" points="0 0 12 0 12 12" class="sidebar" transform="translate(0, 44.77777777777778)" visibility="visible"/><text fill="#000" font-size="7.876"><tspan x="4" y="11.296">T1484:</tspan><tspan x="4" y="25.889">Domain Policy</tspan><tspan x="4" y="40.481">Modification</tspan></text></g><g class="technique T1078" transform="translate(5,5) translate(0,1) translate(235.0561797752809, 0) translate(0, 134.33333333333331)"><rect width="105.775" height="44.778" fill="#756bb1" stroke="#6B7279" class="cell"/><polygon fill="#6B7279" points="0 0 12 0 12 12" class="sidebar" transform="translate(0, 44.77777777777778)" visibility="visible"/><text fill="#fff" font-size="7.876"><tspan x="4" y="11.296">T1078:</tspan><tspan x="4" y="25.889">Valid</tspan><tspan x="4" y="40.481">Accounts</tspan></text></g></g><g class="subtechniques"><g class="subtechnique T1484.002" transform="translate(5,5) translate(0,1) translate(235.0561797752809, 0) translate(15, 89.55555555555556)"><rect width="90.775" height="44.778" fill="#fff" stroke="#6B7279" class="cell"/><rect width="3" height="44.778" fill="#6B7279" stroke="#6B7279" class="cell" transform="translate(-3, 0)"/><text fill="#000" font-size="7.876"><tspan x="4" y="11.296">T1484.002:</tspan><tspan x="4" y="25.889">Domain Trust</tspan><tspan x="4" y="40.481">Modification</tspan></text></g><g class="subtechnique T1078.004" transform="translate(5,5) translate(0,1) translate(235.0561797752809, 0) translate(15, 179.11111111111111)"><rect width="90.775" height="44.778" fill="#9666ffff" stroke="#6B7279" class="cell"/><rect width="3" height="44.778" fill="#6B7279" stroke="#6B7279" class="cell" transform="translate(-3, 0)"/><text fill="#000" font-size="7.876"><tspan x="4" y="11.296">T1078.004:</tspan><tspan x="4" y="25.889">Cloud</tspan><tspan x="4" y="40.481">Accounts</tspan></text></g><g class="subtechnique T1078.001" transform="translate(5,5) translate(0,1) translate(235.0561797752809, 0) translate(15, 223.88888888888889)"><rect width="90.775" height="44.778" fill="#fff" stroke="#6B7279" class="cell"/><rect width="3" height="44.778" fill="#6B7279" stroke="#6B7279" class="cell" transform="translate(-3, 0)"/><text fill="#000" font-size="7.876"><tspan x="4" y="11.296">T1078.001:</tspan><tspan x="4" y="25.889">Default</tspan><tspan x="4" y="40.481">Accounts</tspan></text></g></g><g class="tactic-label"><text fill="#000" font-size="12" font-weight="bold" transform="translate(5,5) translate(0,1) translate(235.0561797752809, 0)"><tspan x="52.888" y="18.639" text-anchor="middle">Privilege</tspan><tspan x="52.888" y="33.139" text-anchor="middle">Escalation</tspan></text></g></g><g class="tactic defense-evasion"><g class="techniques"><g class="technique T1484" transform="translate(5,5) translate(0,1) translate(352.5842696629213, 0) translate(0, 44.77777777777778)"><rect width="105.775" height="44.778" fill="#fff" stroke="#6B7279" class="cell"/><polygon fill="#6B7279" points="0 0 12 0 12 12" class="sidebar" transform="translate(0, 44.77777777777778)" visibility="visible"/><text fill="#000" font-size="7.876"><tspan x="4" y="11.296">T1484:</tspan><tspan x="4" y="25.889">Domain Policy</tspan><tspan x="4" y="40.481">Modification</tspan></text></g><g class="technique T1564" transform="translate(5,5) translate(0,1) translate(352.5842696629213, 0) translate(0, 134.33333333333331)"><rect width="105.775" height="44.778" fill="#fff" stroke="#6B7279" class="cell"/><polygon fill="#6B7279" points="0 0 12 0 12 12" class="sidebar" transform="translate(0, 44.77777777777778)" visibility="visible"/><text fill="#000" font-size="7.876"><tspan x="4" y="18.639">T1564: Hide</tspan><tspan x="4" y="33.139">Artifacts</tspan></text></g><g class="technique T1562" transform="translate(5,5) translate(0,1) translate(352.5842696629213, 0) translate(0, 223.88888888888889)"><rect width="105.775" height="44.778" fill="#fff" stroke="#6B7279" class="cell"/><polygon fill="#6B7279" points="0 0 12 0 12 0" class="sidebar" transform="translate(0, 44.77777777777778)" visibility="visible"/><text fill="#000" font-size="7.876"><tspan x="4" y="11.296">T1562:</tspan><tspan x="4" y="25.889">Impair</tspan><tspan x="4" y="40.481">Defenses</tspan></text></g><g class="technique T1550" transform="translate(5,5) translate(0,1) translate(352.5842696629213, 0) translate(0, 268.66666666666663)"><rect width="105.775" height="44.778" fill="#9666ffff" stroke="#6B7279" class="cell"/><polygon fill="#6B7279" points="0 0 12 0 12 12" class="sidebar" transform="translate(0, 44.77777777777778)" visibility="visible"/><text fill="#000" font-size="7.876"><tspan x="4" y="8.472">T1550:</tspan><tspan x="4" y="19.417">Use Alternate</tspan><tspan x="4" y="30.361">Authentication</tspan><tspan x="4" y="41.306">Material</tspan></text></g><g class="technique T1078" transform="translate(5,5) translate(0,1) translate(352.5842696629213, 0) translate(0, 403)"><rect width="105.775" height="44.778" fill="#756bb1" stroke="#6B7279" class="cell"/><polygon fill="#6B7279" points="0 0 12 0 12 12" class="sidebar" transform="translate(0, 44.77777777777778)" visibility="visible"/><text fill="#fff" font-size="7.876"><tspan x="4" y="11.296">T1078:</tspan><tspan x="4" y="25.889">Valid</tspan><tspan x="4" y="40.481">Accounts</tspan></text></g></g><g class="subtechniques"><g class="subtechnique T1484.002" transform="translate(5,5) translate(0,1) translate(352.5842696629213, 0) translate(15, 89.55555555555556)"><rect width="90.775" height="44.778" fill="#fff" stroke="#6B7279" class="cell"/><rect width="3" height="44.778" fill="#6B7279" stroke="#6B7279" class="cell" transform="translate(-3, 0)"/><text fill="#000" font-size="7.876"><tspan x="4" y="11.296">T1484.002:</tspan><tspan x="4" y="25.889">Domain Trust</tspan><tspan x="4" y="40.481">Modification</tspan></text></g><g class="subtechnique T1564.008" transform="translate(5,5) translate(0,1) translate(352.5842696629213, 0) translate(15, 179.11111111111111)"><rect width="90.775" height="44.778" fill="#fff" stroke="#6B7279" class="cell"/><rect width="3" height="44.778" fill="#6B7279" stroke="#6B7279" class="cell" transform="translate(-3, 0)"/><text fill="#000" font-size="7.876"><tspan x="4" y="11.296">T1564.008:</tspan><tspan x="4" y="25.889">Email</tspan><tspan x="4" y="40.481">Hiding Rules</tspan></text></g><g class="subtechnique T1550.001" transform="translate(5,5) translate(0,1) translate(352.5842696629213, 0) translate(15, 313.44444444444446)"><rect width="90.775" height="44.778" fill="#9666ffff" stroke="#6B7279" class="cell"/><rect width="3" height="44.778" fill="#6B7279" stroke="#6B7279" class="cell" transform="translate(-3, 0)"/><text fill="#000" font-size="7.876"><tspan x="4" y="11.296">T1550.001:</tspan><tspan x="4" y="25.889">Application</tspan><tspan x="4" y="40.481">Access Token</tspan></text></g><g class="subtechnique T1550.004" transform="translate(5,5) translate(0,1) translate(352.5842696629213, 0) translate(15, 358.22222222222223)"><rect width="90.775" height="44.778" fill="#fff" stroke="#6B7279" class="cell"/><rect width="3" height="44.778" fill="#6B7279" stroke="#6B7279" class="cell" transform="translate(-3, 0)"/><text fill="#000" font-size="7.876"><tspan x="4" y="11.296">T1550.004:</tspan><tspan x="4" y="25.889">Web Session</tspan><tspan x="4" y="40.481">Cookie</tspan></text></g><g class="subtechnique T1078.004" transform="translate(5,5) translate(0,1) translate(352.5842696629213, 0) translate(15, 447.77777777777777)"><rect width="90.775" height="44.778" fill="#9666ffff" stroke="#6B7279" class="cell"/><rect width="3" height="44.778" fill="#6B7279" stroke="#6B7279" class="cell" transform="translate(-3, 0)"/><text fill="#000" font-size="7.876"><tspan x="4" y="11.296">T1078.004:</tspan><tspan x="4" y="25.889">Cloud</tspan><tspan x="4" y="40.481">Accounts</tspan></text></g><g class="subtechnique T1078.001" transform="translate(5,5) translate(0,1) translate(352.5842696629213, 0) translate(15, 492.5555555555556)"><rect width="90.775" height="44.778" fill="#fff" stroke="#6B7279" class="cell"/><rect width="3" height="44.778" fill="#6B7279" stroke="#6B7279" class="cell" transform="translate(-3, 0)"/><text fill="#000" font-size="7.876"><tspan x="4" y="11.296">T1078.001:</tspan><tspan x="4" y="25.889">Default</tspan><tspan x="4" y="40.481">Accounts</tspan></text></g></g><g class="tactic-label"><text fill="#000" font-size="12" font-weight="bold" transform="translate(5,5) translate(0,1) translate(352.5842696629213, 0)"><tspan x="52.888" y="18.639" text-anchor="middle">Defense</tspan><tspan x="52.888" y="33.139" text-anchor="middle">Evasion</tspan></text></g></g><g class="tactic credential-access"><g class="techniques"><g class="technique T1110" transform="translate(5,5) translate(0,1) translate(470.1123595505618, 0) translate(0, 44.77777777777778)"><rect width="105.775" height="44.778" fill="#9666ffff" stroke="#6B7279" class="cell"/><polygon fill="#6B7279" points="0 0 12 0 12 12" class="sidebar" transform="translate(0, 44.77777777777778)" visibility="visible"/><text fill="#000" font-size="7.876"><tspan x="4" y="18.639">T1110:</tspan><tspan x="4" y="33.139">Brute Force</tspan></text></g><g class="technique T1606" transform="translate(5,5) translate(0,1) translate(470.1123595505618, 0) translate(0, 268.66666666666663)"><rect width="105.775" height="44.778" fill="#fff" stroke="#6B7279" class="cell"/><polygon fill="#6B7279" points="0 0 12 0 12 12" class="sidebar" transform="translate(0, 44.77777777777778)" visibility="visible"/><text fill="#000" font-size="7.876"><tspan x="4" y="11.296">T1606:</tspan><tspan x="4" y="25.889">Forge Web</tspan><tspan x="4" y="40.481">Credentials</tspan></text></g><g class="technique T1621" transform="translate(5,5) translate(0,1) translate(470.1123595505618, 0) translate(0, 403)"><rect width="105.775" height="44.778" fill="#fff" stroke="#6B7279" class="cell"/><polygon fill="#6B7279" points="0 0 12 0 12 0" class="sidebar" transform="translate(0, 44.77777777777778)" visibility="hidden"/><text fill="#000" font-size="7.876"><tspan x="4" y="8.472">T1621:</tspan><tspan x="4" y="19.417">Multi-Factor</tspan><tspan x="4" y="30.361">Authentication</tspan><tspan x="4" y="41.306">Request Generation</tspan></text></g><g class="technique T1528" transform="translate(5,5) translate(0,1) translate(470.1123595505618, 0) translate(0, 447.77777777777777)"><rect width="105.775" height="44.778" fill="#9666ffff" stroke="#6B7279" class="cell"/><polygon fill="#6B7279" points="0 0 12 0 12 0" class="sidebar" transform="translate(0, 44.77777777777778)" visibility="hidden"/><text fill="#000" font-size="7.876"><tspan x="4" y="11.296">T1528: Steal</tspan><tspan x="4" y="25.889">Application</tspan><tspan x="4" y="40.481">Access Token</tspan></text></g><g class="technique T1539" transform="translate(5,5) translate(0,1) translate(470.1123595505618, 0) translate(0, 492.5555555555556)"><rect width="105.775" height="44.778" fill="#fff" stroke="#6B7279" class="cell"/><polygon fill="#6B7279" points="0 0 12 0 12 0" class="sidebar" transform="translate(0, 44.77777777777778)" visibility="hidden"/><text fill="#000" font-size="7.876"><tspan x="4" y="11.296">T1539: Steal</tspan><tspan x="4" y="25.889">Web Session</tspan><tspan x="4" y="40.481">Cookie</tspan></text></g><g class="technique T1552" transform="translate(5,5) translate(0,1) translate(470.1123595505618, 0) translate(0, 537.3333333333333)"><rect width="105.775" height="44.778" fill="#fff" stroke="#6B7279" class="cell"/><polygon fill="#6B7279" points="0 0 12 0 12 0" class="sidebar" transform="translate(0, 44.77777777777778)" visibility="visible"/><text fill="#000" font-size="7.876"><tspan x="4" y="11.296">T1552:</tspan><tspan x="4" y="25.889">Unsecured</tspan><tspan x="4" y="40.481">Credentials</tspan></text></g></g><g class="subtechniques"><g class="subtechnique T1110.004" transform="translate(5,5) translate(0,1) translate(470.1123595505618, 0) translate(15, 89.55555555555556)"><rect width="90.775" height="44.778" fill="#fff" stroke="#6B7279" class="cell"/><rect width="3" height="44.778" fill="#6B7279" stroke="#6B7279" class="cell" transform="translate(-3, 0)"/><text fill="#000" font-size="7.876"><tspan x="4" y="11.296">T1110.004:</tspan><tspan x="4" y="25.889">Credential</tspan><tspan x="4" y="40.481">Stuffing</tspan></text></g><g class="subtechnique T1110.002" transform="translate(5,5) translate(0,1) translate(470.1123595505618, 0) translate(15, 134.33333333333331)"><rect width="90.775" height="44.778" fill="#fff" stroke="#6B7279" class="cell"/><rect width="3" height="44.778" fill="#6B7279" stroke="#6B7279" class="cell" transform="translate(-3, 0)"/><text fill="#000" font-size="7.876"><tspan x="4" y="11.296">T1110.002:</tspan><tspan x="4" y="25.889">Password</tspan><tspan x="4" y="40.481">Cracking</tspan></text></g><g class="subtechnique T1110.001" transform="translate(5,5) translate(0,1) translate(470.1123595505618, 0) translate(15, 179.11111111111111)"><rect width="90.775" height="44.778" fill="#fff" stroke="#6B7279" class="cell"/><rect width="3" height="44.778" fill="#6B7279" stroke="#6B7279" class="cell" transform="translate(-3, 0)"/><text fill="#000" font-size="7.876"><tspan x="4" y="11.296">T1110.001:</tspan><tspan x="4" y="25.889">Password</tspan><tspan x="4" y="40.481">Guessing</tspan></text></g><g class="subtechnique T1110.003" transform="translate(5,5) translate(0,1) translate(470.1123595505618, 0) translate(15, 223.88888888888889)"><rect width="90.775" height="44.778" fill="#fff" stroke="#6B7279" class="cell"/><rect width="3" height="44.778" fill="#6B7279" stroke="#6B7279" class="cell" transform="translate(-3, 0)"/><text fill="#000" font-size="7.876"><tspan x="4" y="11.296">T1110.003:</tspan><tspan x="4" y="25.889">Password</tspan><tspan x="4" y="40.481">Spraying</tspan></text></g><g class="subtechnique T1606.002" transform="translate(5,5) translate(0,1) translate(470.1123595505618, 0) translate(15, 313.44444444444446)"><rect width="90.775" height="44.778" fill="#fff" stroke="#6B7279" class="cell"/><rect width="3" height="44.778" fill="#6B7279" stroke="#6B7279" class="cell" transform="translate(-3, 0)"/><text fill="#000" font-size="7.876"><tspan x="4" y="11.296">T1606.002:</tspan><tspan x="4" y="25.889">SAML</tspan><tspan x="4" y="40.481">Tokens</tspan></text></g><g class="subtechnique T1606.001" transform="translate(5,5) translate(0,1) translate(470.1123595505618, 0) translate(15, 358.22222222222223)"><rect width="90.775" height="44.778" fill="#fff" stroke="#6B7279" class="cell"/><rect width="3" height="44.778" fill="#6B7279" stroke="#6B7279" class="cell" transform="translate(-3, 0)"/><text fill="#000" font-size="7.876"><tspan x="4" y="11.296">T1606.001:</tspan><tspan x="4" y="25.889">Web</tspan><tspan x="4" y="40.481">Cookies</tspan></text></g></g><g class="tactic-label"><text fill="#000" font-size="12" font-weight="bold" transform="translate(5,5) translate(0,1) translate(470.1123595505618, 0)"><tspan x="52.888" y="18.639" text-anchor="middle">Credential</tspan><tspan x="52.888" y="33.139" text-anchor="middle">Access</tspan></text></g></g><g class="tactic discovery"><g class="techniques"><g class="technique T1087" transform="translate(5,5) translate(0,1) translate(587.6404494382023, 0) translate(0, 44.77777777777778)"><rect width="105.775" height="44.778" fill="#fff" stroke="#6B7279" class="cell"/><polygon fill="#6B7279" points="0 0 12 0 12 12" class="sidebar" transform="translate(0, 44.77777777777778)" visibility="visible"/><text fill="#000" font-size="7.876"><tspan x="4" y="11.296">T1087:</tspan><tspan x="4" y="25.889">Account</tspan><tspan x="4" y="40.481">Discovery</tspan></text></g><g class="technique T1538" transform="translate(5,5) translate(0,1) translate(587.6404494382023, 0) translate(0, 179.11111111111111)"><rect width="105.775" height="44.778" fill="#fff" stroke="#6B7279" class="cell"/><polygon fill="#6B7279" points="0 0 12 0 12 0" class="sidebar" transform="translate(0, 44.77777777777778)" visibility="hidden"/><text fill="#000" font-size="7.876"><tspan x="4" y="11.296">T1538: Cloud</tspan><tspan x="4" y="25.889">Service</tspan><tspan x="4" y="40.481">Dashboard</tspan></text></g><g class="technique T1526" transform="translate(5,5) translate(0,1) translate(587.6404494382023, 0) translate(0, 223.88888888888889)"><rect width="105.775" height="44.778" fill="#fff" stroke="#6B7279" class="cell"/><polygon fill="#6B7279" points="0 0 12 0 12 0" class="sidebar" transform="translate(0, 44.77777777777778)" visibility="hidden"/><text fill="#000" font-size="7.876"><tspan x="4" y="11.296">T1526: Cloud</tspan><tspan x="4" y="25.889">Service</tspan><tspan x="4" y="40.481">Discovery</tspan></text></g><g class="technique T1069" transform="translate(5,5) translate(0,1) translate(587.6404494382023, 0) translate(0, 268.66666666666663)"><rect width="105.775" height="44.778" fill="#fff" stroke="#6B7279" class="cell"/><polygon fill="#6B7279" points="0 0 12 0 12 12" class="sidebar" transform="translate(0, 44.77777777777778)" visibility="visible"/><text fill="#000" font-size="7.876"><tspan x="4" y="8.472">T1069:</tspan><tspan x="4" y="19.417">Permission</tspan><tspan x="4" y="30.361">Groups</tspan><tspan x="4" y="41.306">Discovery</tspan></text></g><g class="technique T1518" transform="translate(5,5) translate(0,1) translate(587.6404494382023, 0) translate(0, 358.22222222222223)"><rect width="105.775" height="44.778" fill="#fff" stroke="#6B7279" class="cell"/><polygon fill="#6B7279" points="0 0 12 0 12 12" class="sidebar" transform="translate(0, 44.77777777777778)" visibility="visible"/><text fill="#000" font-size="7.876"><tspan x="4" y="11.296">T1518:</tspan><tspan x="4" y="25.889">Software</tspan><tspan x="4" y="40.481">Discovery</tspan></text></g></g><g class="subtechniques"><g class="subtechnique T1087.004" transform="translate(5,5) translate(0,1) translate(587.6404494382023, 0) translate(15, 89.55555555555556)"><rect width="90.775" height="44.778" fill="#9666ffff" stroke="#6B7279" class="cell"/><rect width="3" height="44.778" fill="#6B7279" stroke="#6B7279" class="cell" transform="translate(-3, 0)"/><text fill="#000" font-size="7.876"><tspan x="4" y="11.296">T1087.004:</tspan><tspan x="4" y="25.889">Cloud</tspan><tspan x="4" y="40.481">Account</tspan></text></g><g class="subtechnique T1087.003" transform="translate(5,5) translate(0,1) translate(587.6404494382023, 0) translate(15, 134.33333333333331)"><rect width="90.775" height="44.778" fill="#fff" stroke="#6B7279" class="cell"/><rect width="3" height="44.778" fill="#6B7279" stroke="#6B7279" class="cell" transform="translate(-3, 0)"/><text fill="#000" font-size="7.876"><tspan x="4" y="11.296">T1087.003:</tspan><tspan x="4" y="25.889">Email</tspan><tspan x="4" y="40.481">Account</tspan></text></g><g class="subtechnique T1069.003" transform="translate(5,5) translate(0,1) translate(587.6404494382023, 0) translate(15, 313.44444444444446)"><rect width="90.775" height="44.778" fill="#fff" stroke="#6B7279" class="cell"/><rect width="3" height="44.778" fill="#6B7279" stroke="#6B7279" class="cell" transform="translate(-3, 0)"/><text fill="#000" font-size="7.876"><tspan x="4" y="11.296">T1069.003:</tspan><tspan x="4" y="25.889">Cloud</tspan><tspan x="4" y="40.481">Groups</tspan></text></g><g class="subtechnique T1518.001" transform="translate(5,5) translate(0,1) translate(587.6404494382023, 0) translate(15, 403)"><rect width="90.775" height="44.778" fill="#fff" stroke="#6B7279" class="cell"/><rect width="3" height="44.778" fill="#6B7279" stroke="#6B7279" class="cell" transform="translate(-3, 0)"/><text fill="#000" font-size="7.876"><tspan x="4" y="8.472">T1518.001:</tspan><tspan x="4" y="19.417">Security</tspan><tspan x="4" y="30.361">Software</tspan><tspan x="4" y="41.306">Discovery</tspan></text></g></g><g class="tactic-label"><text fill="#000" font-size="12" font-weight="bold" transform="translate(5,5) translate(0,1) translate(587.6404494382023, 0)"><tspan x="52.888" y="25.889" text-anchor="middle">Discovery</tspan></text></g></g><g class="tactic lateral-movement"><g class="techniques"><g class="technique T1534" transform="translate(5,5) translate(0,1) translate(705.1685393258426, 0) translate(0, 44.77777777777778)"><rect width="105.775" height="44.778" fill="#fff" stroke="#6B7279" class="cell"/><polygon fill="#6B7279" points="0 0 12 0 12 0" class="sidebar" transform="translate(0, 44.77777777777778)" visibility="hidden"/><text fill="#000" font-size="7.876"><tspan x="4" y="11.296">T1534:</tspan><tspan x="4" y="25.889">Internal</tspan><tspan x="4" y="40.481">Spearphishing</tspan></text></g><g class="technique T1080" transform="translate(5,5) translate(0,1) translate(705.1685393258426, 0) translate(0, 89.55555555555556)"><rect width="105.775" height="44.778" fill="#fff" stroke="#6B7279" class="cell"/><polygon fill="#6B7279" points="0 0 12 0 12 0" class="sidebar" transform="translate(0, 44.77777777777778)" visibility="hidden"/><text fill="#000" font-size="7.876"><tspan x="4" y="11.296">T1080:</tspan><tspan x="4" y="25.889">Taint Shared</tspan><tspan x="4" y="40.481">Content</tspan></text></g><g class="technique T1550" transform="translate(5,5) translate(0,1) translate(705.1685393258426, 0) translate(0, 134.33333333333331)"><rect width="105.775" height="44.778" fill="#9666ffff" stroke="#6B7279" class="cell"/><polygon fill="#6B7279" points="0 0 12 0 12 12" class="sidebar" transform="translate(0, 44.77777777777778)" visibility="visible"/><text fill="#000" font-size="7.876"><tspan x="4" y="8.472">T1550:</tspan><tspan x="4" y="19.417">Use Alternate</tspan><tspan x="4" y="30.361">Authentication</tspan><tspan x="4" y="41.306">Material</tspan></text></g></g><g class="subtechniques"><g class="subtechnique T1550.001" transform="translate(5,5) translate(0,1) translate(705.1685393258426, 0) translate(15, 179.11111111111111)"><rect width="90.775" height="44.778" fill="#9666ffff" stroke="#6B7279" class="cell"/><rect width="3" height="44.778" fill="#6B7279" stroke="#6B7279" class="cell" transform="translate(-3, 0)"/><text fill="#000" font-size="7.876"><tspan x="4" y="11.296">T1550.001:</tspan><tspan x="4" y="25.889">Application</tspan><tspan x="4" y="40.481">Access Token</tspan></text></g><g class="subtechnique T1550.004" transform="translate(5,5) translate(0,1) translate(705.1685393258426, 0) translate(15, 223.88888888888889)"><rect width="90.775" height="44.778" fill="#fff" stroke="#6B7279" class="cell"/><rect width="3" height="44.778" fill="#6B7279" stroke="#6B7279" class="cell" transform="translate(-3, 0)"/><text fill="#000" font-size="7.876"><tspan x="4" y="11.296">T1550.004:</tspan><tspan x="4" y="25.889">Web Session</tspan><tspan x="4" y="40.481">Cookie</tspan></text></g></g><g class="tactic-label"><text fill="#000" font-size="12" font-weight="bold" transform="translate(5,5) translate(0,1) translate(705.1685393258426, 0)"><tspan x="52.888" y="18.639" text-anchor="middle">Lateral</tspan><tspan x="52.888" y="33.139" text-anchor="middle">Movement</tspan></text></g></g><g class="tactic collection"><g class="techniques"><g class="technique T1119" transform="translate(5,5) translate(0,1) translate(822.6966292134831, 0) translate(0, 44.77777777777778)"><rect width="105.775" height="44.778" fill="#fff" stroke="#6B7279" class="cell"/><polygon fill="#6B7279" points="0 0 12 0 12 0" class="sidebar" transform="translate(0, 44.77777777777778)" visibility="hidden"/><text fill="#000" font-size="7.876"><tspan x="4" y="11.296">T1119:</tspan><tspan x="4" y="25.889">Automated</tspan><tspan x="4" y="40.481">Collection</tspan></text></g><g class="technique T1213" transform="translate(5,5) translate(0,1) translate(822.6966292134831, 0) translate(0, 89.55555555555556)"><rect width="105.775" height="44.778" fill="#fff" stroke="#6B7279" class="cell"/><polygon fill="#6B7279" points="0 0 12 0 12 12" class="sidebar" transform="translate(0, 44.77777777777778)" visibility="visible"/><text fill="#000" font-size="7.876"><tspan x="4" y="8.472">T1213:</tspan><tspan x="4" y="19.417">Data from</tspan><tspan x="4" y="30.361">Information</tspan><tspan x="4" y="41.306">Repositories</tspan></text></g><g class="technique T1114" transform="translate(5,5) translate(0,1) translate(822.6966292134831, 0) translate(0, 268.66666666666663)"><rect width="105.775" height="44.778" fill="#fff" stroke="#6B7279" class="cell"/><polygon fill="#6B7279" points="0 0 12 0 12 12" class="sidebar" transform="translate(0, 44.77777777777778)" visibility="visible"/><text fill="#000" font-size="7.876"><tspan x="4" y="11.296">T1114:</tspan><tspan x="4" y="25.889">Email</tspan><tspan x="4" y="40.481">Collection</tspan></text></g></g><g class="subtechniques"><g class="subtechnique T1213.003" transform="translate(5,5) translate(0,1) translate(822.6966292134831, 0) translate(15, 134.33333333333331)"><rect width="90.775" height="44.778" fill="#fff" stroke="#6B7279" class="cell"/><rect width="3" height="44.778" fill="#6B7279" stroke="#6B7279" class="cell" transform="translate(-3, 0)"/><text fill="#000" font-size="7.876"><tspan x="4" y="11.296">T1213.003:</tspan><tspan x="4" y="25.889">Code</tspan><tspan x="4" y="40.481">Repositories</tspan></text></g><g class="subtechnique T1213.001" transform="translate(5,5) translate(0,1) translate(822.6966292134831, 0) translate(15, 179.11111111111111)"><rect width="90.775" height="44.778" fill="#fff" stroke="#6B7279" class="cell"/><rect width="3" height="44.778" fill="#6B7279" stroke="#6B7279" class="cell" transform="translate(-3, 0)"/><text fill="#000" font-size="7.876"><tspan x="4" y="18.639">T1213.001:</tspan><tspan x="4" y="33.139">Confluence</tspan></text></g><g class="subtechnique T1213.002" transform="translate(5,5) translate(0,1) translate(822.6966292134831, 0) translate(15, 223.88888888888889)"><rect width="90.775" height="44.778" fill="#fff" stroke="#6B7279" class="cell"/><rect width="3" height="44.778" fill="#6B7279" stroke="#6B7279" class="cell" transform="translate(-3, 0)"/><text fill="#000" font-size="7.876"><tspan x="4" y="18.639">T1213.002:</tspan><tspan x="4" y="33.139">Sharepoint</tspan></text></g><g class="subtechnique T1114.003" transform="translate(5,5) translate(0,1) translate(822.6966292134831, 0) translate(15, 313.44444444444446)"><rect width="90.775" height="44.778" fill="#fff" stroke="#6B7279" class="cell"/><rect width="3" height="44.778" fill="#6B7279" stroke="#6B7279" class="cell" transform="translate(-3, 0)"/><text fill="#000" font-size="7.876"><tspan x="4" y="8.472">T1114.003:</tspan><tspan x="4" y="19.417">Email</tspan><tspan x="4" y="30.361">Forwarding</tspan><tspan x="4" y="41.306">Rule</tspan></text></g><g class="subtechnique T1114.002" transform="translate(5,5) translate(0,1) translate(822.6966292134831, 0) translate(15, 358.22222222222223)"><rect width="90.775" height="44.778" fill="#fff" stroke="#6B7279" class="cell"/><rect width="3" height="44.778" fill="#6B7279" stroke="#6B7279" class="cell" transform="translate(-3, 0)"/><text fill="#000" font-size="7.876"><tspan x="4" y="11.296">T1114.002:</tspan><tspan x="4" y="25.889">Remote Email</tspan><tspan x="4" y="40.481">Collection</tspan></text></g></g><g class="tactic-label"><text fill="#000" font-size="12" font-weight="bold" transform="translate(5,5) translate(0,1) translate(822.6966292134831, 0)"><tspan x="52.888" y="25.889" text-anchor="middle">Collection</tspan></text></g></g><g class="tactic impact"><g class="techniques"><g class="technique T1531" transform="translate(5,5) translate(0,1) translate(940.2247191011236, 0) translate(0, 44.77777777777778)"><rect width="105.775" height="44.778" fill="#9666ffff" stroke="#6B7279" class="cell"/><polygon fill="#6B7279" points="0 0 12 0 12 0" class="sidebar" transform="translate(0, 44.77777777777778)" visibility="hidden"/><text fill="#000" font-size="7.876"><tspan x="4" y="18.639">T1531: Account</tspan><tspan x="4" y="33.139">Access Removal</tspan></text></g><g class="technique T1499" transform="translate(5,5) translate(0,1) translate(940.2247191011236, 0) translate(0, 89.55555555555556)"><rect width="105.775" height="44.778" fill="#fff" stroke="#6B7279" class="cell"/><polygon fill="#6B7279" points="0 0 12 0 12 12" class="sidebar" transform="translate(0, 44.77777777777778)" visibility="visible"/><text fill="#000" font-size="7.876"><tspan x="4" y="10.296">T1499:</tspan><tspan x="4" y="24.889">Endpoint Denial</tspan><tspan x="4" y="39.481">of Service</tspan></text></g><g class="technique T1498" transform="translate(5,5) translate(0,1) translate(940.2247191011236, 0) translate(0, 268.66666666666663)"><rect width="105.775" height="44.778" fill="#fff" stroke="#6B7279" class="cell"/><polygon fill="#6B7279" points="0 0 12 0 12 12" class="sidebar" transform="translate(0, 44.77777777777778)" visibility="visible"/><text fill="#000" font-size="7.876"><tspan x="4" y="11.296">T1498:</tspan><tspan x="4" y="25.889">Network Denial</tspan><tspan x="4" y="40.481">of Service</tspan></text></g></g><g class="subtechniques"><g class="subtechnique T1499.003" transform="translate(5,5) translate(0,1) translate(940.2247191011236, 0) translate(15, 134.33333333333331)"><rect width="90.775" height="44.778" fill="#fff" stroke="#6B7279" class="cell"/><rect width="3" height="44.778" fill="#6B7279" stroke="#6B7279" class="cell" transform="translate(-3, 0)"/><text fill="#000" font-size="7.876"><tspan x="4" y="8.472">T1499.003:</tspan><tspan x="4" y="19.417">Application</tspan><tspan x="4" y="30.361">Exhaustion</tspan><tspan x="4" y="41.306">Flood</tspan></text></g><g class="subtechnique T1499.004" transform="translate(5,5) translate(0,1) translate(940.2247191011236, 0) translate(15, 179.11111111111111)"><rect width="90.775" height="44.778" fill="#fff" stroke="#6B7279" class="cell"/><rect width="3" height="44.778" fill="#6B7279" stroke="#6B7279" class="cell" transform="translate(-3, 0)"/><text fill="#000" font-size="7.876"><tspan x="4" y="8.472">T1499.004:</tspan><tspan x="4" y="19.417">Application</tspan><tspan x="4" y="30.361">or System</tspan><tspan x="4" y="41.306">Exploitation</tspan></text></g><g class="subtechnique T1499.002" transform="translate(5,5) translate(0,1) translate(940.2247191011236, 0) translate(15, 223.88888888888889)"><rect width="90.775" height="44.778" fill="#fff" stroke="#6B7279" class="cell"/><rect width="3" height="44.778" fill="#6B7279" stroke="#6B7279" class="cell" transform="translate(-3, 0)"/><text fill="#000" font-size="7.876"><tspan x="4" y="8.472">T1499.002:</tspan><tspan x="4" y="19.417">Service</tspan><tspan x="4" y="30.361">Exhaustion</tspan><tspan x="4" y="41.306">Flood</tspan></text></g><g class="subtechnique T1498.001" transform="translate(5,5) translate(0,1) translate(940.2247191011236, 0) translate(15, 313.44444444444446)"><rect width="90.775" height="44.778" fill="#fff" stroke="#6B7279" class="cell"/><rect width="3" height="44.778" fill="#6B7279" stroke="#6B7279" class="cell" transform="translate(-3, 0)"/><text fill="#000" font-size="7.876"><tspan x="4" y="10.296">T1498.001:</tspan><tspan x="4" y="24.889">Direct</tspan><tspan x="4" y="39.481">Network Flood</tspan></text></g><g class="subtechnique T1498.002" transform="translate(5,5) translate(0,1) translate(940.2247191011236, 0) translate(15, 358.22222222222223)"><rect width="90.775" height="44.778" fill="#fff" stroke="#6B7279" class="cell"/><rect width="3" height="44.778" fill="#6B7279" stroke="#6B7279" class="cell" transform="translate(-3, 0)"/><text fill="#000" font-size="7.876"><tspan x="4" y="10.296">T1498.002:</tspan><tspan x="4" y="24.889">Reflection</tspan><tspan x="4" y="39.481">Amplification</tspan></text></g></g><g class="tactic-label"><text fill="#000" font-size="12" font-weight="bold" transform="translate(5,5) translate(0,1) translate(940.2247191011236, 0)"><tspan x="52.888" y="25.889" text-anchor="middle">Impact</tspan></text></g></g></g></g></g></svg>